# xmcd
#
# Track frame offsets:
#	150
#	15151
#	26931
#	40285
#	54397
#	71350
#	81760
#	96618
#	118359
#	137619
#	149413
#	162480
#	176283
#	202749
#
# Disc length: 2963 seconds
#
# Revision: 1
# Processed by: cddbd v1.5.1PL0 Copyright (c) Steve Scherf et al.
# Submitted via: EasyCDDAExtractor 6.0.0.1
#
DISCID=bf0b910e
DTITLE=Sweet Dreams
DYEAR=2000
DGENRE=Bluegrass
TTITLE0=Last Thing On My Mind
TTITLE1=Let The Teardrops Fall
TTITLE2=Blue Nun Cafe
TTITLE3=J.J. Snead
TTITLE4=Those Memories
TTITLE5=Half As Much
TTITLE6=Old Son Of A Gun
TTITLE7=Tomorrow Is A Long Time
TTITLE8=Rocking Good Way
TTITLE9=Walking After Midnight
TTITLE10=Even Cowgirls Get The Blues
TTITLE11=Sealed With A Kiss
TTITLE12=Fearless Love
TTITLE13=Jolene
EXTD=
EXTT0=
EXTT1=
EXTT2=
EXTT3=
EXTT4=
EXTT5=
EXTT6=
EXTT7=
EXTT8=
EXTT9=
EXTT10=
EXTT11=
EXTT12=
EXTT13=
PLAYORDER=
